<?xml version="1.0" encoding="UTF-8" standalone="no"?>
<svg
   xmlns:dc="http://purl.org/dc/elements/1.1/"
   xmlns:cc="http://creativecommons.org/ns#"
   xmlns:rdf="http://www.w3.org/1999/02/22-rdf-syntax-ns#"
   xmlns:svg="http://www.w3.org/2000/svg"
   xmlns="http://www.w3.org/2000/svg"
   width="587.5"
   height="550"
   id="svg2"
   version="1.0">
  <defs
     id="defs4" />
  <metadata
     id="metadata7">
    <rdf:RDF>
      <cc:Work
         rdf:about="">
        <dc:format>image/svg+xml</dc:format>
        <dc:type
           rdf:resource="http://purl.org/dc/dcmitype/StillImage" />
        <cc:license
           rdf:resource="http://web.resource.org/cc/PublicDomain" />
        <dc:title></dc:title>
      </cc:Work>
      <cc:License
         rdf:about="http://web.resource.org/cc/PublicDomain">
        <cc:permits
           rdf:resource="http://web.resource.org/cc/Reproduction" />
        <cc:permits
           rdf:resource="http://web.resource.org/cc/Distribution" />
        <cc:permits
           rdf:resource="http://web.resource.org/cc/DerivativeWorks" />
      </cc:License>
    </rdf:RDF>
  </metadata>
  <g
     id="layer7"
     style="display:inline">
    <path
       style="color:#000000;display:inline;overflow:visible;visibility:visible;opacity:1;fill:#ffffff;fill-opacity:1;fill-rule:evenodd;stroke:#999999;stroke-width:2.5;stroke-linecap:round;stroke-linejoin:round;stroke-miterlimit:4;stroke-dasharray:none;stroke-dashoffset:0;stroke-opacity:1;marker:none;marker-start:none;marker-mid:none;marker-end:none"
       d="m 285.94277,4.389559 2.3831,4.766203 0.78125,2.929687 -1.36719,2.148438 v 3.320312 l 1.17187,2.148438 h 2.73438 l 1.95312,2.148437 0.58594,2.148438 1.5625,1.953125 h 2.34375 l 2.34375,-2.929688 4.88281,-1.5625 2.53907,-0.195312 0.39062,2.34375 h 1.17188 l 0.19531,1.171875 1.75781,0.78125 0.19531,7.8125 0.78125,2.539062 2.73438,0.390625 1.36719,1.367188 3.90625,-1.757813 1.36718,1.5625 2.34375,-0.390625 3.125,3.710938 -0.19531,6.835937 h 1.36719 l 1.17187,-1.953125 10.9375,-0.585937 6.25,4.882812 0.78125,1.5625 -2.92968,2.148438 v 2.734375 l -0.97657,0.976562 3.71094,0.976563 0.58594,3.710938 -3.90625,2.34375 0.19531,1.95313 h 8.00781 l 2.73438,2.14844 2.34375,-0.97657 4.29687,-1.36718 2.34375,-1.5625 v -2.34375 -1.757821 l 1.75782,-1.757812 1.95312,-2.929688 h 2.92969 l 0.78125,0.585938 v 3.515625 l -2.14844,1.953125 1.36719,1.171883 -0.78125,1.95312 -0.58594,2.14844 3.125,1.95312 v 1.75782 l -0.78125,0.78125 0.39063,4.49218 6.25,0.78125 1.75781,1.17188 0.97656,2.53906 5.46875,0.58594 1.5625,1.17187 0.78125,3.90625 2.53906,0.39063 1.5625,1.5625 0.78125,3.71095 h 1.17188 l 1.17187,-1.17189 3.32032,-0.19532 2.34375,-2.14843 h 4.49218 l 3.51563,3.90625 h 3.125 l 1.17187,1.17189 h 3.32032 l 0.58593,-0.97658 2.34375,-1.95313 2.92969,-0.19529 2.73438,2.34375 h 1.95312 l 0.58594,-0.39064 h 1.95312 l 4.10157,1.95314 1.95312,1.95311 0.19531,4.6875 2.73438,1.17189 v 2.73436 l 1.17187,0.39064 1.95313,3.71092 3.32031,-0.39063 0.19531,-2.34375 2.73438,-1.17187 c 0,0 1.95313,1.1719 2.92969,1.17188 0.97656,0 2.34375,2.53906 2.34375,2.53906 l 1.95312,1.36718 6.64063,-0.19529 2.73437,-2.53908 4.6875,-0.39063 1.36719,2.14846 3.90625,2.34375 1.36719,1.95311 4.10156,-1.17186 h 2.14844 l 1.5625,1.75779 2.92968,-1.75779 4.29688,2.14842 4.88281,0.58594 2.73438,2.14843 -2.73438,0.58596 -1.75781,4.6875 0.39062,3.32029 -1.75781,1.75782 h -1.5625 l -1.95312,2.53906 v 2.34375 l -5.07813,3.71094 -0.58594,6.64064 -2.34375,7.61717 0.58594,5.66408 -5.07812,9.96092 0.19531,6.25 1.95312,2.73437 -1.75781,2.53907 v 3.90625 l -0.97656,2.34375 v 4.88281 l -1.5625,2.14844 1.36719,3.125 2.53906,2.92968 -1.95313,2.53907 -0.19531,4.29689 -3.71094,2.92967 -7.22656,0.19533 -1.36719,-1.17189 0.39063,-2.14844 -4.88281,0.78125 -5.07813,5.85937 0.19531,0.78125 4.6875,-0.97654 1.36719,1.36717 -2.53906,3.125 -2.14844,0.97658 0.97656,2.34375 -6.25,7.22654 -2.73437,1.36719 -0.19531,3.71094 -2.73438,2.53906 -2.92969,1.36719 -4.29687,2.14844 0.39062,9.375 -12.10937,11.32812 -0.19531,1.36719 1.95312,0.78125 -2.92969,3.51562 -0.39062,4.10157 3.71094,1.95312 0.39062,1.17188 -2.92969,3.71093 1.17188,0.78125 -0.19531,1.95313 -3.51563,0.39062 -2.34375,1.36719 v 3.71094 h 6.44531 l 2.53907,-2.34375 3.90625,-2.53906 -2.14844,-1.75782 -0.19531,-1.75781 1.95312,-4.29687 2.14844,-0.19532 1.17187,1.75782 4.29688,-3.51563 4.49219,-0.78125 h 6.64062 l 0.19531,2.53906 3.51563,3.71094 v 2.73438 l -2.14844,2.34375 0.19531,1.5625 3.71094,1.75781 v 2.92969 1.75781 l 1.36719,-0.78125 4.29687,4.49219 0.39063,4.29687 -0.78125,1.95313 -6.64063,2.73437 -0.19531,6.64063 2.92969,3.32031 c 0,0 2.92969,-0.19529 3.71094,-0.39062 0.78125,-0.19531 0.39062,7.22656 0.39062,7.22656 l 5.27344,3.125 0.78125,2.73437 2.53906,0.97656 -2.73437,4.6875 0.97656,1.5625 -0.58594,3.32032 -5.07812,1.95312 -0.97657,1.17188 -2.53906,1.36718 -0.19531,2.34375 h -2.14844 l -2.14844,-1.36718 -5.85937,2.34375 1.36719,2.92968 0.97656,1.95313 2.92969,0.97656 0.78125,5.85938 5.07812,2.53906 2.73438,-0.39063 2.14843,0.78125 0.58594,5.66407 2.73438,1.36718 v 1.75782 l -2.14844,-0.19532 -2.34375,2.53907 0.58594,2.73437 -3.51563,3.71094 -0.78125,1.75781 0.97656,2.53906 1.95313,0.58594 1.5625,1.36719 -2.73438,0.39062 v 3.90625 l 4.10157,2.53907 v 3.51562 h 2.92968 l 5.07813,1.36719 5.07812,4.10156 h 2.92969 l 9.17969,-3.32031 2.92969,-0.19531 0.78125,2.53906 0.97656,1.75781 0.58594,2.92969 -1.17188,4.29687 -4.29687,1.36719 0.58593,2.92969 -2.92968,2.53906 1.86987,4.30072 11.30666,23.86323 97.11539,0 0,-456.730768 H 284.61538 Z"
       id="path7297" />
    <path
       style="display:inline;fill:#ffffff;fill-opacity:1;fill-rule:evenodd;stroke:#999999;stroke-width:2.5;stroke-linecap:round;stroke-linejoin:round;stroke-miterlimit:4;stroke-dasharray:none;stroke-opacity:1"
       d="m 107.27118,438.67059 v 1.93048 l 2.34375,2.14844 3.51562,0.19531 0.19532,2.53907 2.73437,0.19531 0.78125,-1.75781 3.71094,1.5625 2.34375,0.58593 0.58594,2.34375 -1.36719,1.17188 v 3.71094 l -2.73438,1.36718 -0.19531,1.75782 1.75781,1.95312 3.125,0.97656 0.58594,-2.92968 1.75781,-1.95313 -0.19531,2.53906 1.36719,1.95313 h 3.51562 l 1.5625,2.14844 4.6875,0.78125 4.49219,2.73437 h 7.42188 l 0.39062,4.10156 5.07813,3.90625 1.95312,2.34375 2.14844,-1.17187 1.95312,-0.39063 0.97657,0.97657 1.75781,-0.97657 3.90625,-2.14843 3.32031,1.95312 3.90625,2.92969 0.39063,2.34375 3.125,2.53906 h 2.53906 l 6.44531,-2.73437 2.73438,3.125 3.71093,0.97656 1.36719,-2.34375 1.75781,0.78125 11.71875,0.78125 0.39063,-9.57031 2.73437,0.39062 5.07813,2.92969 6.05469,1.17187 h 2.53906 l 3.32031,4.29688 8.39844,-0.39063 3.32031,5.27344 2.92969,-1.17187 8.59375,1.17187 0.97656,5.66406 2.92969,2.73438 5.85937,1.5625 0.19532,3.51562 3.125,2.73438 2.34375,-0.39063 3.32031,-4.10156 4.10156,-0.78125 6.44531,2.14844 5.46875,4.6875 1.5625,-1.95313 h 1.36719 l 1.36719,0.97657 1.17187,-0.58594 0.19532,-2.73438 5.85937,-1.36718 1.95313,-2.53907 2.92968,-0.97656 h 4.10157 l 2.53906,2.73438 2.87404,0.17962 55.78026,0 v 84.50476 l -426.923076,0 V 411.53846 H 104.80769 Z"
       id="path1335" />
    <path
       style="color:#000000;display:inline;overflow:visible;visibility:visible;opacity:1;fill:none;fill-opacity:1;fill-rule:evenodd;stroke:#999999;stroke-width:2.5;stroke-linecap:round;stroke-linejoin:round;stroke-miterlimit:4;stroke-dasharray:none;stroke-dashoffset:0;stroke-opacity:1;marker:none;marker-start:none;marker-mid:none;marker-end:none"
       d="m 408.4864,90.70395 1.10485,-7.18156 v -4.41942 l -6.35291,-4.97184 2.48592,-6.35291 4.69564,-10.219905 3.86699,-3.86699 4.41941,1.381068 1.38107,-6.076699 7.45777,-3.86699 -3.03835,-3.590777 2.20971,-3.314563 -8.0102,-5.248058 1.9335,-4.695631 -4.41942,-4.143204 -3.31456,-1.657282"
       id="path3301" />
    <path
       style="color:#000000;display:inline;overflow:visible;visibility:visible;opacity:1;fill:none;fill-opacity:1;fill-rule:evenodd;stroke:#999999;stroke-width:2.5;stroke-linecap:round;stroke-linejoin:round;stroke-miterlimit:4;stroke-dasharray:none;stroke-dashoffset:0;stroke-opacity:1;marker:none;marker-start:none;marker-mid:none;marker-end:none"
       d="m 425.61164,92.63744 3.03835,-2.48592 v -4.97185 l 3.31457,-4.69563 -0.27622,-6.90534 -7.45777,-3.31456 -5.80048,-7.45777 -0.27621,-8.562618"
       id="path3303" />
    <path
       style="color:#000000;display:inline;overflow:visible;visibility:visible;opacity:1;fill:none;fill-opacity:1;fill-rule:evenodd;stroke:#999999;stroke-width:2.5;stroke-linecap:round;stroke-linejoin:round;stroke-miterlimit:4;stroke-dasharray:none;stroke-dashoffset:0;stroke-opacity:1;marker:none;marker-start:none;marker-mid:none;marker-end:none"
       d="m 478.36844,196.76996 4.97184,-0.27621 1.9335,3.31456 5.24806,-2.76213 5.24805,1.93349 4.41942,-1.65728 4.41942,-4.41942 5.80048,2.76214 4.69563,-0.55243 0.82865,-4.1432 -3.59078,-1.10486 1.65728,-5.80048 5.80049,-1.9335 3.86699,2.48593 5.52427,4.41941 h 2.48592"
       id="path3305" />
    <path
       style="color:#000000;display:inline;overflow:visible;visibility:visible;opacity:1;fill:none;fill-opacity:1;fill-rule:evenodd;stroke:#999999;stroke-width:2.5;stroke-linecap:round;stroke-linejoin:round;stroke-miterlimit:4;stroke-dasharray:none;stroke-dashoffset:0;stroke-opacity:1;marker:none;marker-start:none;marker-mid:none;marker-end:none"
       d="m 463.4529,290.40637 4.97185,4.41942 4.41942,-0.27622 4.1432,-2.76213 3.31456,0.82864 2.76214,-3.59078 2.48592,-1.65728 6.62913,0.55243 0.82864,2.76213 3.86699,-0.27621 1.65728,-4.41942 4.69563,-0.27621 1.10485,-5.80049 4.14321,-4.1432 v -1.9335 l -2.48592,-4.41941 2.48592,-2.20971 2.20971,-0.27622 2.48592,-4.97184 -0.55243,-1.38107 5.52427,-2.76213 2.20971,3.31456 -1.38106,7.45777 4.97184,5.52427 5.24806,3.59077 h 5.80048 -0.27621"
       id="path3307" />
    <path
       style="color:#000000;display:inline;overflow:visible;visibility:visible;opacity:1;fill:none;fill-opacity:1;fill-rule:evenodd;stroke:#999999;stroke-width:2.5;stroke-linecap:butt;stroke-linejoin:miter;stroke-miterlimit:4;stroke-dasharray:none;stroke-dashoffset:0;stroke-opacity:1;marker:none;marker-start:none;marker-mid:none;marker-end:none"
       d="m 240.54854,484.86074 v 3.59077 l -0.27621,6.62913 2.48592,2.76213 6.35291,-2.48592 4.1432,-3.86699 v -0.27621"
       id="path4217" />
  </g>
  <g
     id="layer3"
     style="display:inline">
    <path
       style="display:inline;fill:none;fill-opacity:1;fill-rule:evenodd;stroke:#86d4eb;stroke-width:2;stroke-linecap:round;stroke-linejoin:round;stroke-miterlimit:4;stroke-dasharray:none;stroke-opacity:1"
       d="m 568.92104,452.72493 -2.92969,1.95313 0.39062,1.95312 1.5625,1.95313 -1.75781,1.36719 0.78125,1.5625 -1.17187,1.36718 v 1.75782 l 1.95312,1.75781 v 2.73437 l -1.17187,2.53907 -1.36719,0.58593 -1.5625,-2.14843 -2.73438,0.19531 -0.58593,-0.39063 h -2.34375 l -2.14844,1.95313 -0.78125,3.32031 -5.07813,0.97656 -3.90625,3.32032 -0.78125,2.14843 -1.95312,-0.19531 -0.97656,-1.17187 -0.58594,3.32031 -1.36719,0.58594 -0.39062,3.125 0.58593,1.36718 -2.14843,1.5625 -0.58594,1.5625 h -1.5625 v 2.14844 l 1.95312,1.36719 3.32032,1.95312 0.19531,1.56251 -1.95313,0.58593 -3.125,0.58594 v 1.36719 l 1.17188,1.17187 0.19531,3.90625 4.29688,1.36719 1.5625,0.39063 1.36718,2.14843 -0.97656,1.36719 -1.5625,0.58594 -1.17187,2.14844 -1.17188,1.36718 0.58594,3.51563 2.92969,-0.19531 0.78125,0.58593 2.73437,-1.36718 0.78125,0.78125 -1.36719,2.92968 1.36719,1.36719 -2.34375,1.75781 -1.5625,3.51563 4.29688,0.97656 6.05468,0.58594 -2.53906,2.92969 c 0,0 -1.95312,-0.78125 -1.95312,0.19531 0,0.97656 -1.36719,3.32031 -1.36719,3.32031 l 1.95312,2.14844 3.51563,2.14844 6.64062,1.75781 1.95313,0.78125 1.75781,0.78125 -1.17187,2.14844 3.125,-0.19532 0.58593,1.36719 h 3.125 l 0.78125,-3.71094 -1.95312,-0.39062 2.73437,-2.92969 -0.97656,-0.97656 0.19531,-1.75781 3.51563,-1.95313 0.19531,-2.14844 -2.34375,-0.19531 -1.5625,1.36719 v -1.95313 l 3.125,-0.19531 0.97656,-2.34375 0.78125,-6.83594 -0.58593,-2.92968 -0.19532,-8.59375 4.6875,-6.64063 v -10.9375 l -1.95312,-3.71094 -0.58594,-11.71875 -1.36719,-2.14844 -2.53906,-1.95312 -0.39062,-7.22656 1.17187,-3.32032 -1.5625,-5.27343 -0.97656,-4.29688 -0.78125,-1.17187 z"
       id="path1339" />
    <path
       style="color:#000000;display:inline;overflow:visible;visibility:visible;opacity:1;fill:#d3ebfa;fill-opacity:1;fill-rule:evenodd;stroke:#86d4eb;stroke-width:2;stroke-linecap:round;stroke-linejoin:round;stroke-miterlimit:4;stroke-dasharray:none;stroke-dashoffset:0;stroke-opacity:1;marker:none;marker-start:none;marker-mid:none;marker-end:none"
       d="m 0.017474,429.55151 7.462137,2.41537 8.023566,-2.67361 6.494011,1.74449 7.497814,-2.80594 6.835423,0.60197 5.487535,3.71772 4,1.76214 h 2.20971 l 2.20971,2.76213 h 5.52427 l 3.31456,-4.1432 h 5.80049 l 3.03835,-1.38107 2.76213,3.31457 h 1.9335 l 1.65728,2.48592 h 3.31456 l 4.69563,3.86699 7.73398,-0.82864 3.03835,2.48592 9.11505,-3.31456 5.31496,-1.10697 2.32975,-0.39273 3.51563,-1.36719 4.49218,-5.46875 3.71094,-6.44531 1.17188,-4.6875 1.36718,-6.64062 4.49219,-17.1875 3.51563,-18.75 v -4.49219 l 2.14843,-2.92969 0.39063,-2.92969 1.95312,-0.78125 0.78125,1.17188 4.88282,-0.19531 -1.17188,-1.5625 -0.39062,-1.17188 -3.90625,-3.51562 -2.73438,3.51562 -1.36719,4.49219 0.19532,-3.32031 1.75781,-12.89063 2.53906,-16.60156 0.97656,-16.40625 3.125,-4.6875 1.95313,0.19531 -0.19531,4.10156 9.96093,8.98438 2.73438,10.74219 0.97656,4.6875 0.97656,-1.5625 -0.39062,-5.66407 -1.36719,-5.66406 -1.75781,-8.00781 -6.25,-6.25 -2.14844,-0.39063 -0.19531,-1.95312 -2.73438,-1.5625 -4.10156,-3.32031 -2.34375,0.19531 -0.39062,-4.29688 -0.78125,-4.29687 -0.39063,-3.71094 -4.49219,-3.32031 0.39063,-6.83594 2.73437,3.32031 3.32032,0.39063 0.39062,4.6875 0.97656,0.78125 0.58594,1.36719 -1.75781,2.34375 0.39062,1.5625 h 2.73438 l -0.58594,-0.97657 -0.19531,-2.73437 2.34375,0.19531 0.97656,-4.29687 -1.75781,-2.53907 0.78125,-1.17187 2.34375,0.39062 0.19531,-2.14843 -1.75781,-0.78125 -0.97656,-2.73438 -2.73438,-0.58594 -0.78125,-1.75781 -4.10156,0.19531 -2.14844,-1.75781 -2.73437,-1.75781 h -2.73438 l -2.14844,-3.125 3.32032,-1.17188 2.34375,1.5625 0.39062,1.95313 3.90625,0.39062 1.5625,1.75782 2.92969,-0.39063 0.39062,-1.95312 3.125,-2.53907 -2.53906,-2.34375 -0.19531,2.73438 -4.29688,-2.14844 -1.95312,-2.92969 h -4.29688 l -1.75781,-3.90625 h -4.49219 l -3.90625,-3.90625 -3.90625,-1.95312 -3.71093,-11.13281 h -1.75782 l 0.19532,-1.75782 -6.05469,-5.85937 0.19531,-4.6875 6.05469,-7.8125 -5.07813,-4.6875 -4.29687,0.78125 -0.39063,-2.92969 h 2.34375 l 2.14844,-2.14844 -0.78125,-1.75781 -0.19531,-1.95312 3.51562,-1.75782 h -3.32031 l -2.53906,2.73438 h -3.51563 l -2.14843,-2.73438 -0.39063,1.5625 -3.71094,-0.78125 -2.14843,-1.17187 1.95312,-2.73438 -0.78125,-1.5625 -0.78125,-0.78125 3.71094,-3.32029 -1.36719,-0.97658 -0.19531,-1.75781 1.36719,-1.17186 -2.73438,-0.58596 -10.54687,0.97657 -1.75782,-2.73436 -2.34375,-0.78125 1.5625,-1.95314 2.92969,1.36718 2.53906,0.78125 0.97657,-1.5625 -1.95313,-2.34375 -2.53906,-0.58593 0.58594,1.36718 -2.73438,0.39063 -2.14844,-2.92967 1.17188,2.73436 -1.17188,1.95314 -2.53906,-2.14846 -0.58593,-1.36718 -0.78125,2.34375 -2.34375,-0.58594 v 3.51562 l 1.17187,1.5625 -1.17187,1.36721 -2.34375,-1.75783 0.39062,-2.53906 0.39063,-2.53907 -1.17188,-2.14843 -3.51562,-3.51561 -2.73438,-1.17189 0.58594,-2.14844 -1.17188,1.75783 -3.125,-0.78125 -2.34375,-3.71096 h -2.53906 l -3.32031,-0.58593 -1.36719,-1.95311 -0.19531,1.17186 -5.468753,-0.39061 -2.539063,-4.10158 -0.78125,-3.32031 v 3.32031 l -1.953125,0.39062 -3.125,-1.75779 -1.757812,0.19529 -1.757813,-0.78125 1.757813,2.34375 -0.976563,1.75782 -4.492187,0.19531 -4.101563,-0.78125 1.367188,-2.73438 -0.976563,-5.07812 -4.101562,-4.6875 -2.539063,0.19533 -1.757812,-1.5625 -2.148438,0.19529 -1.953129,-1.17187 1.367192,-1.75781 6.640625,-0.39061 3.90625,-0.58596 h 2.34375 l 2.539062,0.19532 1.171875,-2.14844 -0.78125,-3.125 -1.953125,-0.39063 -4.101562,-2.34375 -2.148438,3.32032 -0.976562,0.78125 0.195312,-5.27344 -3.515625,-1.17188 2.734375,-3.125 4.492188,2.14846 3.710937,0.97654 4.6875,0.19532 0.195313,-1.17186 -4.296875,-0.19533 0.78125,-2.73438 -3.90625,1.75782 -0.390625,-1.95311 4.296875,-4.10158 -4.882813,3.51562 -7.421875,0.97657 -0.585937,-0.78125 -1.171875,1.17189 -3.125,-0.39064 0.78125,-4.29686 -0.976567,-1.75783 3.125004,-2.53906 -2.34375,-1.75782 2.734375,-3.32029 5.273438,-0.19533 0.390625,-2.34375 1.5625,-0.78125 1.367187,0.97658 3.125,-0.19533 v -1.36717 l 4.492188,-0.58596 0.390625,2.14846 2.539062,-0.58596 0.78125,-1.95312 4.296875,-0.39063 2.34375,0.97657 2.148438,-2.34375 0.390625,4.49218 2.34375,-0.39062 0.390625,1.75783 h 1.562503 v -3.90625 l 5.46875,-0.19533 3.32031,1.95312 2.73438,-3.71093 -1.5625,-2.14844 4.10156,-2.73438 3.125,2.34375 0.97656,-1.36718 4.49219,-0.58594 1.75781,-1.36717 1.17188,2.73436 0.58593,-1.95311 h 3.90625 l -0.19531,2.14842 2.14844,0.19533 -0.19532,3.125 2.73438,0.58592 v 3.32033 l 3.71094,2.73436 -0.39063,3.51564 4.10156,1.95311 v 3.51564 h 1.5625 v -1.95314 l 7.22657,-3.90625 1.17187,-2.34375 3.51563,0.58593 2.34375,-1.75779 v 3.90625 l 1.36718,-1.5625 1.95313,0.58592 0.19531,2.73437 2.34375,-0.19529 0.39063,-2.14846 3.71093,0.39063 3.125,-3.51563 4.6875,0.19532 -2.34375,3.125 3.51563,2.14843 h 13.28125 l 2.14844,-0.97654 -0.39063,-1.95314 -4.29687,-0.97657 -2.73438,-7.03125 2.53906,-5.07812 v -5.46875 l -2.34375,-4.6875 v -7.03125 l -0.97656,-1.36717 -0.97656,-4.49221 -4.49219,-5.07812 -1.36719,-3.125 0.39063,-3.71092 -0.58594,-0.39064 -0.97656,-0.97656 1.5625,-1.95313 v -4.29687 l -4.10156,-3.32031 0.78125,-1.95313 7.22656,2.14844 5.07812,3.32031 4.49219,-3.125 8.39844,0.39063 1.95312,5.27343 h -2.14843 l -1.5625,3.90625 5.07812,6.05469 0.19531,4.6875 7.61719,-1.95311 3.71094,1.95311 16.01562,2.34375 6.64063,3.71093 8.39844,-3.32029 7.42187,-4.29689 5.46875,-0.97657 -5.66406,-1.17187 -3.90625,-2.92967 0.97656,-5.46876 4.6875,-7.03125 8.00781,-4.29688 9.76563,-3.51562 14.84375,-3.71094 8.39844,-6.44531 7.61718,-9.375008 5.27344,3.125 v -1.953125 l -4.29687,-3.90625 0.58593,-7.226563 V 17.358887 l 8.59375,-6.640625 11.32813,-2.148438 9.76562,-1.5625 6.25,-2.929687 v 0 L 293.1875,0 l 7.5756,-4.313529 5.52427,2.485923 4.14321,-1.381068 4.97184,-3.86699 -41.55423,-1.4680397 -329.81102,0 V 429.79453 Z"
       id="path7299" />
    <path
       style="color:#000000;display:inline;overflow:visible;visibility:visible;opacity:1;fill:#ffffff;fill-opacity:1;fill-rule:evenodd;stroke:#86d4eb;stroke-width:2;stroke-linecap:round;stroke-linejoin:round;stroke-miterlimit:4;stroke-dasharray:none;stroke-dashoffset:0;stroke-opacity:1;marker:none;marker-start:none;marker-mid:none;marker-end:none"
       d="m 244.96796,-7.628092 0.82864,7.181554 -3.31457,5.524271 -7.18155,-0.276213 -5.80048,3.038349 0.27621,7.457767 -6.62913,-1.657281 -5.80048,3.590776 -10.21991,2.209709 -4.1432,4.695631 -6.62913,-3.03835 -3.59077,-0.276213 -6.0767,-3.314563 -1.9335,2.209709 h -10.77233 l -6.07669,1.104854 -1.9335,3.314563 -4.97184,-3.86699 -10.49612,-1.104855 -3.59078,-3.038349 0.82864,2.209709 -10.2199,5.248058 -4.97184,-1.933495 -7.73398,1.933495 -3.03835,-1.104855 3.03835,3.866991 v 2.485922 l -4.69564,1.933495 -6.62912,-4.695631 -7.18155,0.276214 -1.38107,2.209708 1.93349,2.485923 -1.38107,2.209708 -2.48592,-4.695631 -6.0767,-5.800485 -6.90534,-3.590777 -1.93349,1.657282 -3.03835,-0.828641 -1.38107,1.933495 h -6.62913 l -3.86699,2.762136 -2.2097,-1.381068 -4.41942,4.419418 1.10485,4.143203 -2.20971,2.485923 1.65729,3.038349 -2.48593,2.485922 -1.10485,-4.143203 0.55243,4.695631 -3.03835,0.552427 v 4.971844 l -1.65728,0.552428 -2.76214,-1.657282 -1.65728,0.276214 -5.24806,-5.524272 -1.65728,1.104854 -3.866992,-3.038349 -1.657282,-1.381068 -1.381068,2.762136 -2.485922,-3.314563 -4.143204,0.276213 -5.248058,2.485922 -2.485922,-3.038349 -6.629126,3.038349 -1.104855,4.419418 -1.657281,-1.104854 -5.524272,3.590776 0.828641,-3.86699 v -1.657282 l -4.419417,3.314563 1.657281,2.209709 -3.590777,3.03835 2.762136,2.209708 -3.86699,4.971845 -3.314563,0.276214 -2.485922,-8.286408 -6.076699,-1.657282 -3.590777,3.866991 -4.419417,-1.104855 1.104854,-4.419417 6.90534,-4.143204 2.485922,2.485922 1.104854,-3.314563 2.485923,-0.276213 12.153398,-10.77233 v -4.143204 l 7.181553,-3.590777 3.038349,1.104855 0.552428,-4.695631 h 1.381067 l 6.90534,-4.695631 0.552427,-8.010194 1.381068,-5.248059 3.03835,-1.104854 2.485922,2.485922 3.038349,-0.276213 3.590777,-3.86699 z"
       id="path2416" />
    <path
       style="color:#000000;display:inline;overflow:visible;visibility:visible;opacity:1;fill:#ffffff;fill-opacity:1;fill-rule:evenodd;stroke:#86d4eb;stroke-width:2;stroke-linecap:round;stroke-linejoin:round;stroke-miterlimit:4;stroke-dasharray:none;stroke-dashoffset:0;stroke-opacity:1;marker:none;marker-start:none;marker-mid:none;marker-end:none"
       d="m 146.91213,21.650549 -6.90534,3.590776 9.39126,6.629126 3.59078,-2.485922 -0.55243,-3.86699 2.20971,-0.276214 v -2.762136 l -3.03835,-0.82864 z"
       id="path2418" />
    <path
       style="color:#000000;display:inline;overflow:visible;visibility:visible;opacity:1;fill:#ffffff;fill-opacity:1;fill-rule:evenodd;stroke:#86d4eb;stroke-width:2;stroke-linecap:round;stroke-linejoin:round;stroke-miterlimit:4;stroke-dasharray:none;stroke-dashoffset:0;stroke-opacity:1;marker:none;marker-start:none;marker-mid:none;marker-end:none"
       d="m 108.51844,104.23841 6.62913,-0.55243 1.10485,3.31457 -1.93349,2.76213 -1.9335,-1.65728 -1.10485,-1.10485 -1.10485,1.10485 h -1.9335 z"
       id="path2420" />
    <path
       style="color:#000000;display:inline;overflow:visible;visibility:visible;opacity:1;fill:#ffffff;fill-opacity:1;fill-rule:evenodd;stroke:#86d4eb;stroke-width:2;stroke-linecap:round;stroke-linejoin:round;stroke-miterlimit:4;stroke-dasharray:none;stroke-dashoffset:0;stroke-opacity:1;marker:none;marker-start:none;marker-mid:none;marker-end:none"
       d="m 98.02233,88.21802 -5.24806,4.14321 1.93349,2.48592 2.48593,-1.10485 2.20971,0.55242 z"
       id="path2422" />
    <path
       style="color:#000000;display:inline;overflow:visible;visibility:visible;opacity:1;fill:#ffffff;fill-opacity:1;fill-rule:evenodd;stroke:#86d4eb;stroke-width:2;stroke-linecap:round;stroke-linejoin:round;stroke-miterlimit:4;stroke-dasharray:none;stroke-dashoffset:0;stroke-opacity:1;marker:none;marker-start:none;marker-mid:none;marker-end:none"
       d="m 112.10922,76.34084 -3.59078,2.20971 1.10486,1.93349 3.59077,-1.93349 z"
       id="path2424" />
    <path
       style="color:#000000;display:inline;overflow:visible;visibility:visible;opacity:1;fill:#ffffff;fill-opacity:1;fill-rule:evenodd;stroke:#86d4eb;stroke-width:2;stroke-linecap:round;stroke-linejoin:round;stroke-miterlimit:4;stroke-dasharray:none;stroke-dashoffset:0;stroke-opacity:1;marker:none;marker-start:none;marker-mid:none;marker-end:none"
       d="m 103.27039,92.91365 0.82864,1.65729 1.93349,-1.10486 -0.55243,-1.65728 z"
       id="path2426" />
    <path
       style="color:#000000;display:inline;overflow:visible;visibility:visible;opacity:1;fill:#d3ebfa;fill-opacity:1;fill-rule:evenodd;stroke:#86d4eb;stroke-width:2;stroke-linecap:round;stroke-linejoin:round;stroke-miterlimit:4;stroke-dasharray:none;stroke-dashoffset:0;stroke-opacity:1;marker:none;marker-start:none;marker-mid:none;marker-end:none"
       d="m 583.53057,391.04666 -8.44084,-1.72592 -13.45405,-7.98398 -17.23247,-6.10825 -10.28598,-0.0691 -5.47792,5.29259 -1.65728,7.45777 -2.20971,-0.55243 -4.41942,3.31456 v 4.14321 l -1.65728,2.2097 -1.10485,3.86699 -1.9335,3.03835 -5.80048,3.86699 -2.48593,0.55243 -8.2864,3.59078 -6.54543,0.8775 -3.43191,2.1973 -0.19532,2.14843 h -3.51562 l -3.90625,3.51563 -4.49219,0.39062 -0.19531,6.05469 -1.95313,-0.39062 -1.36718,1.75781 -3.90625,-0.78125 -0.19532,4.49219 -3.32031,3.71093 -5.66406,0.78125 -0.39063,3.125 -1.5625,2.14844 -3.125,1.95313 4.10157,-0.19532 v 5.07813 l -3.125,1.36719 -2.73438,-0.78125 -1.17187,1.75781 h -4.10157 l -1.5625,1.36719 -0.39062,2.53906 -1.36719,0.97656 -0.97656,-1.17187 -1.17188,-0.39063 -2.92968,-0.97656 -2.53907,1.75781 0.39063,2.53906 1.17187,1.17188 -4.6875,-0.19531 1.95313,-0.97657 0.19531,-1.5625 -6.05469,-0.58593 -3.51562,2.14843 -1.95313,1.36719 -2.14843,-0.39062 -0.97657,-3.90625 -3.51562,-1.5625 -0.97656,-1.36719 -4.6875,-1.5625 h -9.57032 l 1.17188,-1.36719 0.78125,-1.95312 -4.29688,-0.19532 3.125,-2.73437 -0.58593,-1.75781 -2.92969,1.17187 -11.13281,-0.19531 -1.75782,-3.71094 -3.71093,-1.5625 -2.34375,1.95313 3.51562,3.32031 -6.64062,1.17187 -8.39844,-1.75781 1.95312,-3.32031 h 2.92969 l -1.5625,-1.5625 -8.20312,-0.58594 -8.59375,-0.39062 -4.49219,0.19531 v -3.90625 l -5.66406,-0.39063 -6.64063,4.6875 -10.54687,8.39844 -1.75782,2.14844 -5.46875,0.19531 -0.78125,1.75781 -7.03125,2.14844 -0.39062,3.125 -1.95313,1.95313 -2.92968,2.34375 -3.32032,-3.125 -1.5625,2.53906 1.95313,2.92969 2.34375,-0.19532 -0.19531,6.44532 0.58593,22.65625 2.73438,1.17187 1.5625,2.14844 -0.18793,2.8731 1.46935,2.51025 5.52427,2.76213 -2.2097,4.97185 -2.76214,-0.27622 -3.03835,0.55243 0.55243,9.66747 v 7.73399 l -3.65545,5.25793 -11.4956,9.05184 -11.18836,6.79264 -12.66059,5.55487 0,36.6666 337.5403,0 V 391.00872 Z"
       id="path2408" />
  </g>
</svg>
